HIERARCHY
ROOT hip
{
  OFFSET 5.70873 43.8894 -1.52928
  CHANNELS 6 Xposition Yposition Zposition Zrotation Xrotation Yrotation
  JOINT abdomen
  {
    OFFSET 0 5.99393 0.287273
    CHANNELS 6 Xposition Yposition Zposition Zrotation Xrotation Yrotation
    JOINT chest
    {
      OFFSET 0 6.65865 -0.856112
      CHANNELS 6 Xposition Yposition Zposition Zrotation Xrotation Yrotation
      JOINT neck
      {
        OFFSET 0 8.65624 -1.42685
        CHANNELS 6 Xposition Yposition Zposition Zrotation Xrotation Yrotation
        JOINT head
        {
          OFFSET 0 3.80999 -0.190247
          CHANNELS 6 Xposition Yposition Zposition Zrotation Xrotation Yrotation
          End Site
          {
            OFFSET 0 0 0
          }
        }
      }
      JOINT rCollar
      {
        OFFSET -1.4963 7.5744 -1.52136
        CHANNELS 6 Xposition Yposition Zposition Zrotation Xrotation Yrotation
        JOINT rShldr
        {
          OFFSET -5.47506 -0.905672 0.485692
          CHANNELS 6 Xposition Yposition Zposition Zrotation Xrotation Yrotation
          JOINT rForeArm
          {
            OFFSET -11.3069 -0.201091 0.618544
            CHANNELS 6 Xposition Yposition Zposition Zrotation Xrotation Yrotation
            JOINT rHand
            {
              OFFSET -9.61414 -0.254739 3.48553
              CHANNELS 6 Xposition Yposition Zposition Zrotation Xrotation Yrotation
              JOINT rThumb1
              {
                OFFSET 0.176263 -0.07068 1.26622
                CHANNELS 6 Xposition Yposition Zposition Zrotation Xrotation Yrotation
                JOINT rThumb2
                {
                  OFFSET -1.04683 -0.546484 1.82182
                  CHANNELS 6 Xposition Yposition Zposition Zrotation Xrotation Yrotation
                  JOINT rThumb3
                  {
                    OFFSET -0.993472 -0.621916 0.655506
                    CHANNELS 6 Xposition Yposition Zposition Zrotation Xrotation Yrotation
                    End Site
                    {
                      OFFSET -0.996134 -0.66263 0.644615
                    }
                  }
                }
              }
              JOINT rIndex1
              {
                OFFSET -2.64253 0.566363 2.4162
                CHANNELS 6 Xposition Yposition Zposition Zrotation Xrotation Yrotation
                JOINT rIndex2
                {
                  OFFSET -1.39394 -0.635138 0.899356
                  CHANNELS 6 Xposition Yposition Zposition Zrotation Xrotation Yrotation
                  JOINT rIndex3
                  {
                    OFFSET -0.622395 -0.856016 0.402182
                    CHANNELS 6 Xposition Yposition Zposition Zrotation Xrotation Yrotation
                    End Site
                    {
                      OFFSET -0.472476 -0.801802 0.34216
                    }
                  }
                }
              }
              JOINT rMid1
              {
                OFFSET -3.20814 0.514427 1.52547
                CHANNELS 6 Xposition Yposition Zposition Zrotation Xrotation Yrotation
                JOINT rMid2
                {
                  OFFSET -1.56545 -0.497974 0.68919
                  CHANNELS 6 Xposition Yposition Zposition Zrotation Xrotation Yrotation
                  JOINT rMid3
                  {
                    OFFSET -0.679943 -1.17582 0.444246
                    CHANNELS 6 Xposition Yposition Zposition Zrotation Xrotation Yrotation
                    End Site
                    {
                      OFFSET -0.343874 -0.941341 0.267611
                    }
                  }
                }
              }
              JOINT rRing1
              {
                OFFSET -3.47877 0.200518 0.597719
                CHANNELS 6 Xposition Yposition Zposition Zrotation Xrotation Yrotation
                JOINT rRing2
                {
                  OFFSET -1.28208 -0.53155 0.44672
                  CHANNELS 6 Xposition Yposition Zposition Zrotation Xrotation Yrotation
                  JOINT rRing3
                  {
                    OFFSET -0.710288 -0.970167 0.4032
                    CHANNELS 6 Xposition Yposition Zposition Zrotation Xrotation Yrotation
                    End Site
                    {
                      OFFSET -0.403228 -0.950952 0.378354
                    }
                  }
                }
              }
              JOINT rPinky1
              {
                OFFSET -3.42483 -0.278904 -0.240415
                CHANNELS 6 Xposition Yposition Zposition Zrotation Xrotation Yrotation
                JOINT rPinky2
                {
                  OFFSET -1.05787 -0.635999 0.156459
                  CHANNELS 6 Xposition Yposition Zposition Zrotation Xrotation Yrotation
                  JOINT rPinky3
                  {
                    OFFSET -0.42815 -0.754232 0.287187
                    CHANNELS 6 Xposition Yposition Zposition Zrotation Xrotation Yrotation
                    End Site
                    {
                      OFFSET -0.235717 -0.725605 0.279416
                    }
                  }
                }
              }
            }
          }
        }
      }
      JOINT lCollar
      {
        OFFSET 1.4963 7.5744 -1.52136
        CHANNELS 6 Xposition Yposition Zposition Zrotation Xrotation Yrotation
        JOINT lShldr
        {
          OFFSET 5.47506 -0.905672 0.485692
          CHANNELS 6 Xposition Yposition Zposition Zrotation Xrotation Yrotation
          JOINT lForeArm
          {
            OFFSET 11.3069 -0.201091 0.618544
            CHANNELS 6 Xposition Yposition Zposition Zrotation Xrotation Yrotation
            JOINT lHand
            {
              OFFSET 9.61414 -0.254739 3.48553
              CHANNELS 6 Xposition Yposition Zposition Zrotation Xrotation Yrotation
              JOINT lThumb1
              {
                OFFSET -0.176263 -0.07068 1.26622
                CHANNELS 6 Xposition Yposition Zposition Zrotation Xrotation Yrotation
                JOINT lThumb2
                {
                  OFFSET 1.04683 -0.546484 1.82182
                  CHANNELS 6 Xposition Yposition Zposition Zrotation Xrotation Yrotation
                  JOINT lThumb3
                  {
                    OFFSET 0.993472 -0.621916 0.655506
                    CHANNELS 6 Xposition Yposition Zposition Zrotation Xrotation Yrotation
                    End Site
                    {
                      OFFSET 0.996134 -0.66263 0.644615
                    }
                  }
                }
              }
              JOINT lIndex1
              {
                OFFSET 2.64253 0.566363 2.4162
                CHANNELS 6 Xposition Yposition Zposition Zrotation Xrotation Yrotation
                JOINT lIndex2
                {
                  OFFSET 1.39394 -0.635138 0.899356
                  CHANNELS 6 Xposition Yposition Zposition Zrotation Xrotation Yrotation
                  JOINT lIndex3
                  {
                    OFFSET 0.622395 -0.856016 0.402182
                    CHANNELS 6 Xposition Yposition Zposition Zrotation Xrotation Yrotation
                    End Site
                    {
                      OFFSET 0.472476 -0.801802 0.34216
                    }
                  }
                }
              }
              JOINT lMid1
              {
                OFFSET 3.20814 0.514427 1.52547
                CHANNELS 6 Xposition Yposition Zposition Zrotation Xrotation Yrotation
                JOINT lMid2
                {
                  OFFSET 1.56545 -0.497974 0.68919
                  CHANNELS 6 Xposition Yposition Zposition Zrotation Xrotation Yrotation
                  JOINT lMid3
                  {
                    OFFSET 0.679943 -1.17582 0.444246
                    CHANNELS 6 Xposition Yposition Zposition Zrotation Xrotation Yrotation
                    End Site
                    {
                      OFFSET 0.343874 -0.941341 0.267611
                    }
                  }
                }
              }
              JOINT lRing1
              {
                OFFSET 3.47877 0.200518 0.597719
                CHANNELS 6 Xposition Yposition Zposition Zrotation Xrotation Yrotation
                JOINT lRing2
                {
                  OFFSET 1.28208 -0.53155 0.44672
                  CHANNELS 6 Xposition Yposition Zposition Zrotation Xrotation Yrotation
                  JOINT lRing3
                  {
                    OFFSET 0.710288 -0.970167 0.4032
                    CHANNELS 6 Xposition Yposition Zposition Zrotation Xrotation Yrotation
                    End Site
                    {
                      OFFSET 0.403228 -0.950952 0.378354
                    }
                  }
                }
              }
              JOINT lPinky1
              {
                OFFSET 3.42483 -0.278904 -0.240415
                CHANNELS 6 Xposition Yposition Zposition Zrotation Xrotation Yrotation
                JOINT lPinky2
                {
                  OFFSET 1.05787 -0.635999 0.156459
                  CHANNELS 6 Xposition Yposition Zposition Zrotation Xrotation Yrotation
                  JOINT lPinky3
                  {
                    OFFSET 0.42815 -0.754232 0.287187
                    CHANNELS 6 Xposition Yposition Zposition Zrotation Xrotation Yrotation
                    End Site
                    {
                      OFFSET 0.235717 -0.725605 0.279416
                    }
                  }
                }
              }
            }
          }
        }
      }
    }
  }
  JOINT rThigh
  {
    OFFSET -4.17848 -1.02486 0.046356
    CHANNELS 6 Xposition Yposition Zposition Zrotation Xrotation Yrotation
    JOINT rShin
    {
      OFFSET 1.27155 -17.465 -0.237699
      CHANNELS 6 Xposition Yposition Zposition Zrotation Xrotation Yrotation
      JOINT rFoot
      {
        OFFSET 0.529163 -17.3815 -1.19582
        CHANNELS 6 Xposition Yposition Zposition Zrotation Xrotation Yrotation
        JOINT rToe
        {
          OFFSET -0.711591 -4.4863 4.0596
          CHANNELS 6 Xposition Yposition Zposition Zrotation Xrotation Yrotation
          End Site
          {
            OFFSET -0.869915 -1.10655 1.99006
          }
        }
      }
    }
  }
  JOINT lThigh
  {
    OFFSET 4.17848 -1.02486 0.046356
    CHANNELS 6 Xposition Yposition Zposition Zrotation Xrotation Yrotation
    JOINT lShin
    {
      OFFSET -1.27155 -17.465 -0.237699
      CHANNELS 6 Xposition Yposition Zposition Zrotation Xrotation Yrotation
      JOINT lFoot
      {
        OFFSET -0.529163 -17.3815 -1.19582
        CHANNELS 6 Xposition Yposition Zposition Zrotation Xrotation Yrotation
        JOINT lToe
        {
          OFFSET 0.711591 -4.4863 4.0596
          CHANNELS 6 Xposition Yposition Zposition Zrotation Xrotation Yrotation
          End Site
          {
            OFFSET 0.869915 -1.10655 1.99006
          }
        }
      }
    }
  }
}
MOTION
Frames:	4
Frame Time:	0.0333333
-16.9668 42.8681 -22.8232 -0.634983 6.14336 101.884 0 5.99393 0.287273 0.0212975 -3.58801 1.70357 0 6.65865 -0.856112 0.150146 -7.17379 3.41858 3.55271e-015 8.65624 -1.42685 -0.572313 13.6137 -8.57442 3.55271e-015 3.80999 -0.190247 -6.32937 -1.09987 -8.80755 -1.4963 7.5744 -1.52136 -43.5806 -1.20692 5.58142 -5.47506 -0.905672 0.485692 -7.91396 -42.0535 -3.66646 -11.3069 -0.201091 0.618544 2.07776 -34.98 9.82323 -9.61414 -0.254739 3.48553 9.33017 -20.4713 -7.72068 0.176263 -0.07068 1.26622 -15.6872 50.4119 18.5117 -1.04683 -0.546484 1.82182 -0.5162 0.55821 -1.55988 -0.993472 -0.621916 0.655506 -2.72965 3.35528 -8.82947 -2.64253 0.566363 2.4162 -23.6212 5.47087 -14.5209 -1.39394 -0.635138 0.899356 39.8961 7.70398 -8.81742 -0.622395 -0.856016 0.402182 39.2013 7.62943 -8.62654 -3.20814 0.514427 1.52547 -0.840516 5.94955 -9.82424 -1.56545 -0.497974 0.68919 52.7412 10.533 -13.0893 -0.679943 -1.17582 0.444246 44.481 9.78101 -10.5178 -3.47877 0.200518 0.597719 16.3707 -0.644982 -5.84609 -1.28208 -0.53155 0.44672 37.8364 9.7177 -10.3215 -0.710288 -0.970167 0.4032 39.1355 9.91103 -10.7659 -3.42483 -0.278904 -0.240415 24.5434 -1.90436 -2.26383 -1.05787 -0.635999 0.156459 31.0686 9.4788 -7.89266 -0.42815 -0.754232 0.287187 30.9985 9.46351 -7.86996 1.4963 7.5744 -1.52136 0.496441 0.855961 8.23868 5.47506 -0.905672 0.485692 -75.3947 -1.15724 30.862 11.3069 -0.201091 0.618544 1.29152 6.76838 -11.9962 9.61414 -0.254739 3.48553 -21.6355 -37.5599 0.727042 -0.176263 -0.07068 1.26622 0.000326437 0.000333094 -2.74207e-006 1.04683 -0.546484 1.82182 -0.000251551 -0.000229195 1.47953e-005 0.993472 -0.621916 0.655506 -0.000186911 3.87961e-005 2.24736e-005 2.64253 0.566363 2.4162 -7.45084e-005 -0.000111125 0.000187294 1.39394 -0.635138 0.899356 0.000344708 0.00015035 -1.4093e-005 0.622395 -0.856016 0.402182 -0.000176427 1.75112e-005 3.3771e-005 3.20814 0.514427 1.52547 2.09796 -0.815549 -0.83193 1.56545 -0.497974 0.68919 2.09898 -0.816068 -0.832351 0.679943 -1.17582 0.444246 2.09906 -0.81618 -0.832653 3.47877 0.200518 0.597719 2.14306 -3.84939 -5.50267 1.28208 -0.53155 0.44672 4.62104 -2.03843 -2.04494 0.710288 -0.970167 0.4032 4.62129 -2.03842 -2.045 3.42483 -0.278904 -0.240415 11.3266 -5.70937 -4.60753 1.05787 -0.635999 0.156459 4.05249 -1.91412 -1.75639 0.42815 -0.754232 0.287187 2.84277 -1.32697 -1.2434 -4.17848 -1.02486 0.046356 -2.15596 -19.8205 44.8081 1.27155 -17.465 -0.237699 9.22523 39.7406 -1.76984 0.529163 -17.3815 -1.19582 -12.8322 8.83232 -21.2843 -0.711591 -4.4863 4.0596 25.1398 -2.61189 -8.17862 4.17848 -1.02486 0.046356 -20.392 2.91427 -1.41017 -1.27155 -17.465 -0.237699 0.478965 -3.10762 0.93296 -0.529163 -17.3815 -1.19582 9.35863 0.285176 -6.27794 0.711591 -4.4863 4.0596 5.82231 4.89937 -1.08318 
-16.9369 42.8553 -22.8643 -0.723753 6.23375 102.282 3.55271e-015 5.99393 0.287273 -0.00839427 -3.57441 1.62769 0 6.65865 -0.856112 0.0853895 -7.14763 3.2639 0 8.65624 -1.42685 -0.568941 13.4716 -8.55133 0 3.80999 -0.190247 -6.39336 -1.12832 -8.82989 -1.4963 7.5744 -1.52136 -43.636 -1.21405 5.36739 -5.47506 -0.905672 0.485692 -8.19907 -42.0315 -3.69621 -11.3069 -0.201091 0.618544 1.83542 -34.6346 9.33117 -9.61414 -0.254739 3.48553 9.63581 -20.7853 -7.51489 0.176263 -0.07068 1.26622 -15.6872 50.412 18.5117 -1.04683 -0.546484 1.82182 -0.516217 0.558201 -1.55988 -0.993472 -0.621916 0.655506 -2.72965 3.3553 -8.82948 -2.64253 0.566363 2.4162 -23.6212 5.47089 -14.5209 -1.39394 -0.635138 0.899356 39.8961 7.70396 -8.81741 -0.622395 -0.856016 0.402182 39.2013 7.62942 -8.62656 -3.20814 0.514427 1.52547 -0.840494 5.94957 -9.82425 -1.56545 -0.497974 0.68919 52.7411 10.533 -13.0893 -0.679943 -1.17582 0.444246 44.481 9.78103 -10.5178 -3.47877 0.200518 0.597719 16.3707 -0.644993 -5.84609 -1.28208 -0.53155 0.44672 37.8364 9.71771 -10.3215 -0.710288 -0.970167 0.4032 39.1355 9.91103 -10.7659 -3.42483 -0.278904 -0.240415 24.5434 -1.90435 -2.26384 -1.05787 -0.635999 0.156459 31.0686 9.47879 -7.89265 -0.42815 -0.754232 0.287187 30.9985 9.46352 -7.86997 1.4963 7.5744 -1.52136 0.616353 0.869423 8.36155 5.47506 -0.905672 0.485692 -75.4269 -1.09608 30.5992 11.3069 -0.201091 0.618544 1.21121 6.75472 -12.0077 9.61414 -0.254739 3.48553 -20.6468 -37.651 0.990735 -0.176263 -0.07068 1.26622 0.0101997 0.00930167 0.032201 1.04683 -0.546484 1.82182 -0.00727072 -0.00231307 -0.0124845 0.993472 -0.621916 0.655506 0.0156278 0.00472956 0.0281807 2.64253 0.566363 2.4162 -0.0444083 0.0262864 0.0440059 1.39394 -0.635138 0.899356 -0.0305405 0.0104971 0.0123424 0.622395 -0.856016 0.402182 -0.0383363 0.0127886 0.0152827 3.20814 0.514427 1.52547 2.06154 -0.790702 -0.813059 1.56545 -0.497974 0.68919 2.04893 -0.796201 -0.812794 0.679943 -1.17582 0.444246 2.06202 -0.801482 -0.818195 3.47877 0.200518 0.597719 2.1084 -3.82851 -5.47463 1.28208 -0.53155 0.44672 4.56529 -2.01267 -2.02106 0.710288 -0.970167 0.4032 4.57816 -2.01851 -2.02655 3.42483 -0.278904 -0.240415 11.2605 -5.67769 -4.58988 1.05787 -0.635999 0.156459 4.00481 -1.88233 -1.73192 0.42815 -0.754232 0.287187 2.80477 -1.30873 -1.22713 -4.17848 -1.02486 0.046356 -2.40004 -19.7849 44.5759 1.27155 -17.465 -0.237699 9.28814 39.8922 -1.82444 0.529163 -17.3815 -1.19582 -12.7767 8.52589 -21.4209 -0.711591 -4.4863 4.0596 25.1313 -2.67744 -8.14569 4.17848 -1.02486 0.046356 -20.5145 3.01239 -1.74938 -1.27155 -17.465 -0.237699 0.476812 -3.13585 0.924803 -0.529163 -17.3815 -1.19582 9.2933 0.313242 -6.36026 0.711591 -4.4863 4.0596 5.82854 4.84306 -1.07455 
-16.901 42.8415 -22.9082 -0.794449 6.31869 102.698 3.55271e-015 5.99393 0.287273 -0.0432718 -3.54512 1.52875 3.55271e-015 6.65865 -0.856112 0.00846382 -7.09014 3.06356 0 8.65624 -1.42685 -0.568877 13.3344 -8.56829 0 3.80999 -0.190247 -6.42177 -1.15571 -8.84525 -1.4963 7.5744 -1.52136 -43.6981 -1.22008 5.20012 -5.47506 -0.905672 0.485692 -8.35459 -42.0143 -3.7943 -11.3069 -0.201091 0.618544 1.68881 -34.5583 9.08442 -9.61414 -0.254739 3.48553 9.79392 -20.8119 -7.40571 0.176263 -0.07068 1.26622 -15.6872 50.412 18.5117 -1.04683 -0.546484 1.82182 -0.516192 0.558217 -1.55987 -0.993472 -0.621916 0.655506 -2.72964 3.35529 -8.82947 -2.64253 0.566363 2.4162 -23.6212 5.47088 -14.5209 -1.39394 -0.635138 0.899356 39.8961 7.70396 -8.81742 -0.622395 -0.856016 0.402182 39.2013 7.62943 -8.62655 -3.20814 0.514427 1.52547 -0.840501 5.94956 -9.82425 -1.56545 -0.497974 0.68919 52.7411 10.533 -13.0893 -0.679943 -1.17582 0.444246 44.481 9.78103 -10.5178 -3.47877 0.200518 0.597719 16.3707 -0.644967 -5.84609 -1.28208 -0.53155 0.44672 37.8363 9.71771 -10.3215 -0.710288 -0.970167 0.4032 39.1355 9.91105 -10.7659 -3.42483 -0.278904 -0.240415 24.5434 -1.90438 -2.26382 -1.05787 -0.635999 0.156459 31.0686 9.47881 -7.89266 -0.42815 -0.754232 0.287187 30.9985 9.46351 -7.86996 1.4963 7.5744 -1.52136 0.768348 0.880828 8.46467 5.47506 -0.905672 0.485692 -75.5089 -1.01733 30.3642 11.3069 -0.201091 0.618544 1.25084 6.75261 -12.0633 9.61414 -0.254739 3.48553 -20.1404 -37.8709 0.985281 -0.176263 -0.07068 1.26622 0.0391605 0.0355637 0.125842 1.04683 -0.546484 1.82182 -0.0142672 -0.00438789 -0.025 0.993472 -0.621916 0.655506 0.0314 0.00943252 0.0563264 2.64253 0.566363 2.4162 -0.173361 0.103071 0.17151 1.39394 -0.635138 0.899356 -0.120472 0.0405636 0.0483321 0.622395 -0.856016 0.402182 -0.149371 0.0499 0.0597407 3.20814 0.514427 1.52547 1.95579 -0.718421 -0.75812 1.56545 -0.497974 0.68919 1.90317 -0.738451 -0.75577 0.679943 -1.17582 0.444246 1.95432 -0.758792 -0.776082 3.47877 0.200518 0.597719 2.00838 -3.7646 -5.39501 1.28208 -0.53155 0.44672 4.4031 -1.93793 -1.95152 0.710288 -0.970167 0.4032 4.4527 -1.96063 -1.97276 3.42483 -0.278904 -0.240415 11.0685 -5.58569 -4.53841 1.05787 -0.635999 0.156459 3.87435 -1.81398 -1.67473 0.42815 -0.754232 0.287187 2.69418 -1.25577 -1.17974 -4.17848 -1.02486 0.046356 -2.68559 -19.7267 44.2112 1.27155 -17.465 -0.237699 9.339 40.0182 -1.8701 0.529163 -17.3815 -1.19582 -12.7096 8.25584 -21.5349 -0.711591 -4.4863 4.0596 25.1228 -2.74298 -8.11271 4.17848 -1.02486 0.046356 -20.6142 3.14974 -1.93809 -1.27155 -17.465 -0.237699 0.474702 -3.16412 0.915235 -0.529163 -17.3815 -1.19582 9.18288 0.293502 -6.64392 0.711591 -4.4863 4.0596 5.83214 4.81069 -1.06953 
-16.8632 42.828 -22.9559 -0.832684 6.43765 103.346 0 5.99393 0.287273 -0.101174 -3.47249 1.34326 0 6.65865 -0.856112 -0.120927 -6.9464 2.68778 0 8.65624 -1.42685 -0.571678 13.2003 -8.68959 3.55271e-015 3.80999 -0.190247 -6.46032 -1.25505 -8.83619 -1.4963 7.5744 -1.52136 -43.8382 -1.22872 4.99216 -5.47506 -0.905672 0.485692 -8.34992 -42.0007 -3.99762 -11.3069 -0.201091 0.618544 1.85055 -34.8217 9.20183 -9.61414 -0.254739 3.48553 9.69175 -20.4982 -7.39354 0.176263 -0.07068 1.26622 -15.6872 50.412 18.5117 -1.04683 -0.546484 1.82182 -0.516202 0.558223 -1.55987 -0.993472 -0.621916 0.655506 -2.72965 3.35531 -8.82948 -2.64253 0.566363 2.4162 -23.6212 5.47089 -14.5209 -1.39394 -0.635138 0.899356 39.8961 7.70397 -8.81742 -0.622395 -0.856016 0.402182 39.2013 7.62944 -8.62655 -3.20814 0.514427 1.52547 -0.840514 5.94957 -9.82423 -1.56545 -0.497974 0.68919 52.7412 10.533 -13.0893 -0.679943 -1.17582 0.444246 44.481 9.78104 -10.5178 -3.47877 0.200518 0.597719 16.3707 -0.644925 -5.84611 -1.28208 -0.53155 0.44672 37.8364 9.71773 -10.3215 -0.710288 -0.970167 0.4032 39.1355 9.91106 -10.7659 -3.42483 -0.278904 -0.240415 24.5434 -1.90436 -2.26383 -1.05787 -0.635999 0.156459 31.0686 9.47881 -7.89265 -0.42815 -0.754232 0.287187 30.9985 9.46354 -7.86996 1.4963 7.5744 -1.52136 0.970728 0.900645 8.644 5.47506 -0.905672 0.485692 -75.6239 -0.889299 29.963 11.3069 -0.201091 0.618544 1.3308 6.76759 -12.0108 9.61414 -0.254739 3.48553 -20.0833 -38.1703 0.991606 -0.176263 -0.07068 1.26622 0.0855635 0.0778298 0.276557 1.04683 -0.546484 1.82182 -0.0340299 -0.010235 -0.0601938 0.993472 -0.621916 0.655506 0.0758352 0.022706 0.135544 2.64253 0.566363 2.4162 -0.381171 0.226492 0.376899 1.39394 -0.635138 0.899356 -0.265276 0.0888482 0.106387 0.622395 -0.856016 0.402182 -0.328171 0.109462 0.131431 3.20814 0.514427 1.52547 1.78535 -0.602214 -0.669562 1.56545 -0.497974 0.68919 1.66855 -0.645862 -0.663712 0.679943 -1.17582 0.444246 1.78094 -0.690243 -0.708128 3.47877 0.200518 0.597719 1.84747 -3.66187 -5.26667 1.28208 -0.53155 0.44672 4.1418 -1.81799 -1.83911 0.710288 -0.970167 0.4032 4.25066 -1.86776 -1.88594 3.42483 -0.278904 -0.240415 10.7593 -5.43808 -4.45488 1.05787 -0.635999 0.156459 3.64755 -1.71611 -1.58592 0.42815 -0.754232 0.287187 2.52185 -1.16255 -1.10267 -4.17848 -1.02486 0.046356 -3.14081 -19.5794 43.5139 1.27155 -17.465 -0.237699 9.36958 40.097 -1.90004 0.529163 -17.3815 -1.19582 -12.655 7.97152 -21.6259 -0.711591 -4.4863 4.0596 25.0706 -3.11354 -7.92629 4.17848 -1.02486 0.046356 -20.7374 3.34979 -2.36588 -1.27155 -17.465 -0.237699 0.472368 -3.16433 0.907723 -0.529163 -17.3815 -1.19582 9.14022 0.374637 -7.01881 0.711591 -4.4863 4.0596 5.85812 4.57718 -1.03357 
